<?xml version="1.0" encoding="utf-8"?>
<!-- Generator: Adobe Illustrator 26.2.1, SVG Export Plug-In . SVG Version: 6.00 Build 0)  -->
<svg version="1.1" id="Layer_1" xmlns="http://www.w3.org/2000/svg" xmlns:xlink="http://www.w3.org/1999/xlink" x="0px" y="0px"
	 viewBox="0 0 217.6 64.5" style="enable-background:new 0 0 217.6 64.5;" xml:space="preserve">
<style type="text/css">
	.st0{fill:#5B5D62;}
</style>
<g id="_x23_e4e4e4ff">
</g>
<g id="_x23_5b5d62ff">
	<path class="st0" d="M17.3,9.9c2,1.1,3.2,3.3,3.5,5.5c0.1,1.7-0.4,3.5-1.5,4.8c-1.7,2-3.5,3.9-5.2,5.8c-0.6,0.7-1.2,1.5-1.3,2.4
		c0.1,0.6,0.3,1.1,0.5,1.7c-1.6-0.7-2.6-2.2-3.2-3.8c-0.9-2.2-0.3-4.9,1.3-6.6c1.7-1.9,3.4-3.7,5-5.7c0.5-0.7,1.1-1.4,1.2-2.2
		C17.7,11.1,17.5,10.5,17.3,9.9z"/>
	<path class="st0" d="M30.2,12.1c2.3,1.2,3.6,3.9,3.7,6.5c0.1,2.2-1.7,3.8-3.1,5.2C25.6,29.2,20.3,34.3,15.5,40
		c-0.8,1-1.7,2-2.2,3.1c-0.4,0.8,0.1,1.5,0.3,2.3c-2.2-1-3.2-3.4-3.7-5.6c-0.4-1.8,0.6-3.6,1.8-4.8c5.1-5.2,10.1-10.6,15-16
		c1.2-1.4,2.5-2.7,3.4-4.3C30.8,13.9,30.3,13,30.2,12.1z"/>
	<path class="st0" d="M48.4,13.6c2.7,0,5.5,0,8.2,0c2.4,0,4.9,0.7,6.7,2.4c2,1.8,2.8,4.6,2.8,7.3c0.1,2.3-0.4,4.7-1.7,6.7
		c-0.7,1.1-1.7,2-2.8,2.8c2.2,1.2,3.9,3.2,4.5,5.6c0.8,3.3,0.7,7-0.7,10.1c-1.2,2.7-4.3,4.1-7.1,4.1c-3.3,0.1-6.6,0-9.9,0.1
		C48.4,39.7,48.4,26.7,48.4,13.6 M53.9,18.8c0,3.8,0,7.6,0,11.4c1.3,0,2.6,0.1,3.9-0.2c1.7-0.6,2.5-2.5,2.6-4.3
		c0.1-1.9,0.2-4.1-1.1-5.7C58,18.4,55.7,18.8,53.9,18.8 M53.9,35.3c0,4.1,0,8.2,0,12.3c1.7-0.1,3.7,0.4,5.2-0.7
		c1.6-1.2,1.7-3.4,1.8-5.2c-0.1-1.9-0.1-4.1-1.6-5.4C57.8,35,55.7,35.3,53.9,35.3z"/>
	<path class="st0" d="M74.6,13.6c2.5,0,4.9,0,7.4,0c2.2,13,4.3,26,6.5,39.1c-1.7,0-3.3,0-5,0c-0.7-4.5-1.4-9-2.1-13.5
		c-2.1,0-4.1,0-6.2,0c-0.7,4.5-1.3,9-2,13.5c-1.7,0-3.4,0-5.1,0C70.3,39.7,72.4,26.6,74.6,13.6 M75.9,34.3c1.6,0,3.2,0,4.7,0
		c-0.8-4.9-1.5-9.8-2.4-14.6C77.3,24.6,76.7,29.5,75.9,34.3z"/>
	<path class="st0" d="M91.5,13.7c3.2,0,6.5-0.1,9.7,0.1c2.5,0.1,5.2,1.1,6.5,3.4c1.9,3.3,1.7,7.3,1.4,10.9c-0.2,3.1-1.6,6.1-4.1,8.1
		c1.6,5.5,3.2,11,4.8,16.5c-1.9,0-3.8,0-5.7,0c-1.3-5-2.5-10.1-3.8-15.2c-1.2,0-2.3,0-3.5,0c0,5.1,0,10.1,0.1,15.2
		c-1.8,0-3.6,0-5.5,0C91.5,39.7,91.5,26.7,91.5,13.7 M96.9,18.8c0,4.7,0,9.3,0,13.9c1.5-0.1,3.3,0.4,4.6-0.6
		c1.7-1.4,2.4-3.7,2.5-5.9c0.1-2.2,0.1-4.8-1.5-6.5C101,18.4,98.8,18.9,96.9,18.8z"/>
	<path class="st0" d="M116.3,14.8c2.1-1.5,4.7-1.4,7.1-1.2c2.3,0.2,4.6,1.3,5.7,3.4c1.6,2.8,1.4,6.1,1.4,9.2c-1.8,0-3.5,0-5.3,0
		c-0.1-2,0.3-4.1-0.4-6c-0.8-2.4-4.7-2.6-5.9-0.5c-0.5,0.8-0.6,1.8-0.6,2.7c0,7.1,0,14.2,0,21.3c0,1.2,0.2,2.5,1.1,3.4
		c1.1,0.9,2.7,1,4,0.4c1.3-0.6,1.8-2.2,1.8-3.5c0-2.8,0-5.5,0-8.3c-1.2,0-2.4,0-3.6,0c0-1.5,0-3.1,0-4.6c3,0,6,0,8.9,0
		c0,4.1,0,8.1,0,12.2c-0.1,2.7-0.6,5.7-2.8,7.5c-2.1,1.7-4.9,1.7-7.5,1.7c-2.1-0.1-4.2-1-5.5-2.8c-1.4-1.9-2-4.3-2-6.7
		c0-7,0-14,0-21.1C113,19.4,114,16.5,116.3,14.8z"/>
	<path class="st0" d="M134.5,13.7c5,0,10,0,15.1,0c0,1.7,0,3.3,0,5c-3.3,0-6.5,0-9.7,0c0,4.2,0,8.4,0,12.6c2.3,0,4.7,0,7.1,0
		c0,1.5,0,3,0,4.5c-2.4,0-4.7,0-7.1,0c0,3.9,0,7.8,0,11.7c3.3,0,6.5,0,9.7,0c0,1.7,0,3.5,0,5.3c-5,0-10.1,0-15.1,0
		C134.5,39.7,134.5,26.7,134.5,13.7z"/>
	<path class="st0" d="M153.2,13.6c1.8,0,3.6,0,5.4,0c0,11.3,0,22.7,0,34c3.1,0,6.3,0,9.4,0c0,1.7,0,3.3,0,5c-4.9,0-9.8,0-14.8,0
		C153.2,39.7,153.2,26.7,153.2,13.6z"/>
	<path class="st0" d="M171.2,13.6c1.8,0,3.6,0,5.3,0c0,11.3,0,22.7,0,34c3.1,0,6.2,0,9.3,0c0,1.7,0,3.3,0,5c-4.9,0-9.8,0-14.7,0
		C171.2,39.7,171.2,26.7,171.2,13.6z"/>
	<path class="st0" d="M194.5,14c2.8-0.7,6-0.5,8.3,1.4c2.2,1.8,3.1,4.8,3.1,7.6c0,6.7,0,13.4,0,20.1c-0.1,2.7-0.8,5.6-2.8,7.5
		c-2.2,2-5.4,2.3-8.2,1.8c-2.2-0.4-4.2-1.9-5.1-4c-1.3-2.8-1.2-5.9-1.2-8.9c0-5.5,0-11.1,0-16.6c0-2.1,0.4-4.3,1.7-6
		C191.1,15.5,192.7,14.5,194.5,14 M196,18.5c-1.7,0.5-2.2,2.4-2.2,3.9c0,7,0,14,0,21.1c0,1.2,0.1,2.4,0.8,3.4
		c1.2,1.7,4.3,1.6,5.3-0.3c0.6-1,0.6-2.3,0.7-3.4c0-6.7,0-13.5,0-20.1c0-1.2-0.1-2.5-0.9-3.5C198.8,18.4,197.3,18.1,196,18.5z"/>
	<path class="st0" d="M36.7,20.8c2.1,1.2,3.3,3.5,3.7,5.8c0.3,1.6-0.6,3.2-1.7,4.3c-4.6,4.8-9.2,9.5-13.7,14.4
		c-1.5,1.7-3,3.4-4.4,5.2c-0.4,0.5-0.8,1.1-0.9,1.7c0,0.7,0.2,1.3,0.4,2c-2.1-1.2-3.3-3.5-3.6-5.8c-0.3-1.7,0.6-3.3,1.8-4.5
		c5.2-5.2,10.1-10.6,15-16.1c1.2-1.5,2.6-2.8,3.6-4.4C37.4,22.6,36.9,21.7,36.7,20.8z"/>
	<path class="st0" d="M37.1,36.3c1.8,1,2.9,2.9,3.4,4.8c0.3,1.8-0.1,3.8-1.3,5.2c-2,2.4-4.4,4.6-6.2,7.2c-0.7,0.9-0.4,2-0.1,3
		c-1.9-1-3-3-3.5-5c-0.3-2,0.4-4.1,1.7-5.5c1.6-1.8,3.3-3.6,4.9-5.5c0.6-0.7,1.2-1.5,1.4-2.4C37.4,37.5,37.2,36.9,37.1,36.3z"/>
</g>
</svg>
